<?xml version="1.0" encoding="utf-8"?>
<!-- Generator: Adobe Illustrator 24.1.0, SVG Export Plug-In . SVG Version: 6.00 Build 0)  -->
<svg version="1.1" id="Layer_1" xmlns="http://www.w3.org/2000/svg" xmlns:xlink="http://www.w3.org/1999/xlink" x="0px" y="0px"
	 viewBox="0 0 2500 2372" style="enable-background:new 0 0 2500 2372;" xml:space="preserve">
<style type="text/css">
	.st0{fill:none;stroke:#FDFEFE;stroke-miterlimit:10;}
	.st1{fill:#FAFAFA;}
	.st2{fill:none;stroke:#FAFAFA;stroke-width:10.8658;stroke-miterlimit:54.3289;}
</style>
<g>
	<path class="st0" d="M450.3,2068.8c-9.8-4.3-16.8-9.2-5.4-19c7.1-5.4,14.7-10.3,22.3-15.2c71.2-46.2,138-96.7,182-171.1
		c36.9-61.9,31-98.3-15.2-144c-257.5-257.5-370.5-565.6-314-929.6c32.1-205.4,126-383,263-537.3c82.6-93.4,180.9-169,288.5-232
		c6.5-3.8,15.8-4.9,16.8-14.7c-2.2-5.4-6-3.8-9.2-3.8c-183.1,0-366.2-3.8-548.7,1.1C155.3,8.6,4.2,143.9,4.8,337.8
		c1.1,566.7,0,1133.3,0,1700.5c0,176,134.2,323.3,309.7,329.8c148.3,6,296.6,1.1,445.5,0.5c10.9,0.5,21.7,1.1,32.6,1.1h784.5
		c195.6,0,391.2,1.1,586.8,0c181.5,0,328.7-146.7,328.7-327.6v-3.3v-317.8c0-7.6,2.7-15.8-2.2-23.9c-9.8,0.5-13.6,8.7-19,14.1
		c-105.4,105.9-229.8,191.2-366.2,251.5c-334.1,147.2-674.2,157.6-1019.2,39.1c-29.9-10.9-62.5-12-93.4-4.3
		c-45.6,11.4-90.7,25-135.8,38.6C724.1,2077.5,588.8,2095.9,450.3,2068.8L450.3,2068.8z M844.2,1153.3c9.2-12,14.1-19,19.6-26.1
		c71.2-90.2,142.3-180.4,213.5-271.1c20.6-26.1,41.3-52.7,54.3-84.2c15.2-35.9-1.1-69.5-38-82.6c-16.3-4.9-33.7-7.1-51.1-6
		c-96.7-0.5-194-0.5-290.7,0c-13.6,0-27.2,1.6-40.2,4.9c-30.4,7.6-48.9,38.6-41.3,69.5c5.4,20.6,21.7,36.9,42.4,41.8
		c13,3.3,26.6,4.9,40.2,4.3c58.7,0.5,117.9,0,176.6,0.5c6.5,0,14.7-4.3,19.6,5.4c-4.9,6.5-9.8,13-14.7,19
		c-84.2,106.5-167.9,213.5-252.1,320c-20.6,26.6-31.5,56-16.3,88.6c15.2,32.6,46.2,38.6,77.7,40.7c25,1.6,50.5,0.5,76.1,0.5
		c88,0,175.5,0.5,263.5-0.5c46.7-0.5,71.7-28.8,66.8-72.3c-3.8-34.2-27.2-52.2-70.6-52.7C1002.8,1152.8,926.2,1153.3,844.2,1153.3
		L844.2,1153.3z M1474.4,867.6c-67.9-59.2-142.9-63-216.2-19.6c-89.1,52.2-121.7,137.5-110.8,236.3
		c10.3,92.4,50.5,167.9,147.2,198.8c60.3,19.6,116.3,12.5,165.7-27.7c13-10.3,16.8-8.1,26.1,3.3c17.9,22.8,48.9,31.5,76.1,21.2
		c27.2-8.1,45.1-33.1,45.1-61.4c0.5-108.7,1.1-217.3,0-326c-0.5-43.5-41.3-71.2-83.7-62.5C1500.5,835,1487.4,850.7,1474.4,867.6
		L1474.4,867.6z M1850.9,1069.1c-2.2,135.8,110.3,238.5,251.5,224.4c129.8-13,214.1-110.3,209.7-247.7
		c-4.3-135.8-105.4-228.7-243.9-224.4C1938.3,825.2,1846.5,929.5,1850.9,1069.1z M1803.1,961c0-85.3,0.5-170,0-255.3
		c0-43.5-27.7-70.6-69-70.1c-40.2,0.5-66.8,27.7-67.4,69.5c-0.5,25.5,0,50.5,0,76.1v431.9c0,33.7,20.6,63,47.8,70.1
		c37.5,10.3,76.1-12,85.8-49.4c1.6-6.5,2.7-13,2.2-20.1C1803.6,1129.4,1803.1,1045.2,1803.1,961L1803.1,961z"/>
	<path class="st1" d="M759.4,2369.2c-148.3,0-297.2,4.9-445.5-0.5c-175.5-7.1-309.7-154.3-309.7-329.8c0-566.7,1.1-1133.3,0-1700.5
		c0-194,151.6-329.2,326-334.1c182.5-4.9,365.6-1.1,548.7-1.1c3.3,0,7.6-1.6,9.2,3.8c-1.1,9.8-10.9,10.9-16.8,14.7
		c-107.6,63-205.9,138.5-288.5,232C446.5,407.9,351.9,585,319.9,790.9c-56.5,363.5,57,672,314,929.6c45.6,46.2,51.6,82,15.2,144
		c-44,74.4-110.8,125-182,171.1c-7.6,4.3-15.2,9.8-22.8,14.7c-11.4,9.8-4.3,14.7,5.4,19c2.2,4.9,4.9,9.2,8.1,13.6
		c62.5,55.4,121.7,114.6,183.1,171.1c28.8,26.6,57.6,54.3,85.3,82C737.7,2346.4,756.7,2349.6,759.4,2369.2z"/>
	<path class="st1" d="M759.4,2369.2c-2.7-19-21.7-22.3-33.1-33.7c-27.7-28.3-56.5-55.4-85.3-82c-61.4-56.5-120.6-115.7-183.1-171.1
		c-3.3-4.3-6-8.7-8.1-13.6c138.5,27.2,273.8,8.7,406.9-32.1c45.1-13.6,90.2-27.2,135.8-38.6c31-8.1,63.6-6.5,93.4,4.3
		c344.4,118.4,684.5,107.6,1019.2-39.1c136.4-60.3,260.8-145.1,366.2-251c5.4-5.4,9.2-13.6,19-14.1c4.9,7.6,2.2,15.8,2.2,23.9V2040
		c1.1,181.5-144.5,329.2-326,330.9h-2.7c-195.6,1.1-391.2,0-586.8,0H792C781.1,2369.7,770.3,2369.2,759.4,2369.2L759.4,2369.2z"/>
	<path class="st1" d="M844.2,1153.3c82,0,159.2-0.5,235.8,0c42.9,0.5,66.3,18.5,70.6,52.7c4.9,42.9-20.1,71.7-66.8,72.3
		c-88,1.1-175.5,0.5-263.5,0.5c-25.5,0-50.5,1.1-76.1-0.5c-31.5-1.6-62.5-8.1-77.7-40.7c-15.2-32.6-4.3-61.9,16.3-88.6
		c83.7-106.5,167.9-213.5,252.1-320c4.9-6.5,9.8-13,14.7-19c-5.4-9.2-13-4.9-19.6-5.4c-58.7-0.5-117.9,0-176.6-0.5
		c-13.6,0-27.2-1.6-40.2-4.3c-31-7.1-50-38-42.9-68.5c4.9-20.6,21.2-37.5,41.8-42.4c13-3.3,26.6-4.9,40.2-4.9
		c96.7-0.5,194-0.5,290.7,0c17.4-0.5,34.2,1.6,51.1,6c36.9,12.5,52.7,46.7,38,82.6c-13,31-33.7,57.6-54.3,84.2
		c-71.2,90.7-142.3,180.9-213.5,270.6C858.3,1134.3,852.9,1141.4,844.2,1153.3L844.2,1153.3z"/>
	<path class="st1" d="M1474.4,867.6c13-16.8,26.6-32.6,48.9-36.9c42.9-8.7,83.1,19,83.7,62.5c1.6,108.7,1.1,217.3,0,326
		c0,28.3-18.5,53.2-45.1,61.4c-27.2,10.3-58.1,2.2-76.1-21.2c-9.2-11.4-13-13.6-26.1-3.3c-49.4,40.2-105.4,47.3-165.7,27.7
		c-96.7-31.5-136.4-107-147.2-198.8c-11.4-99.4,21.7-184.2,110.8-236.3C1331.5,804.5,1406.5,808.3,1474.4,867.6L1474.4,867.6z
		 M1282.1,1065.9c1.1,23.9,8.7,46.7,22.8,65.7c29.3,39.1,85.3,47.3,125,17.9c6.5-4.9,12.5-10.9,17.9-17.9
		c30.4-41.3,30.4-109.2,0-150.5c-15.2-21.2-39.1-33.7-64.7-34.2C1323.3,943.1,1281.5,989.2,1282.1,1065.9z M1850.9,1069.1
		c-4.3-139.6,87.5-243.9,217.9-247.7c138.5-4.3,239.6,88.6,243.9,224.4c4.3,137.5-79.9,234.7-209.7,247.7
		C1961.2,1307.6,1848.7,1204.9,1850.9,1069.1L1850.9,1069.1z M1987.2,1056.1c-1.1,27.2,7.1,53.8,23.4,76.1
		c29.9,39.1,85.8,46.7,125,16.3c6-4.3,10.9-9.8,15.8-15.2c31.5-41.3,31.5-110.8,0.5-152.1c-15.2-20.6-39.1-33.7-64.7-34.2
		C2028.5,943.6,1987.2,988.2,1987.2,1056.1z M1803.1,961c0,84.2,0.5,168.4,0,252.6c0.5,38.6-29.9,70.6-68.5,71.7
		c-6.5,0-13.6-0.5-20.1-2.2c-27.2-7.1-47.8-35.9-47.8-70.1V781.2c0-25.5-0.5-50.5,0-76.1c0.5-41.8,27.2-69,67.4-69
		c41.3-0.5,69,26.6,69,70.1C1803.6,790.9,1803.1,876.2,1803.1,961z"/>
	<path class="st2" d="M360.1,4.8h1782.5c195,0,353.1,158.1,353.1,353.1v1646.2c0,195-158.1,353.1-353.1,353.1H360.1
		c-195,0-353.1-158.1-353.1-353.1V357.9C7,162.9,165.1,4.8,360.1,4.8z"/>
</g>
</svg>
